<svg xmlns="http://www.w3.org/2000/svg" width="1800" height="900" viewBox="0 0 1800 900">
<rect width="100%" height="100%" fill="white"/>
<style>text{font-family:Arial,sans-serif;fill:#222}.t{font-size:27px;font-weight:700}.p{font-size:22px;font-weight:700}.s{font-size:15px}.n{font-size:13px;fill:#555}</style>
<text x="45" y="42" class="t">Community heterogeneity and cluster instability</text>
<text x="80" y="95" class="p" text-anchor="start">A</text>
<text x="125" y="95" class="s" text-anchor="start">Silhouette across candidate k</text>
<line x1="180" y1="720" x2="870" y2="720" stroke="#1F2937" stroke-width="1"/>
<line x1="180" y1="160" x2="180" y2="720" stroke="#1F2937" stroke-width="1"/>
<text x="180.0" y="752" class="n" text-anchor="middle">2</text>
<text x="266.25" y="752" class="n" text-anchor="middle">3</text>
<text x="352.5" y="752" class="n" text-anchor="middle">4</text>
<text x="438.75" y="752" class="n" text-anchor="middle">5</text>
<text x="525.0" y="752" class="n" text-anchor="middle">6</text>
<text x="611.25" y="752" class="n" text-anchor="middle">7</text>
<text x="697.5" y="752" class="n" text-anchor="middle">8</text>
<text x="783.75" y="752" class="n" text-anchor="middle">9</text>
<text x="870.0" y="752" class="n" text-anchor="middle">10</text>
<line x1="180" y1="720.0" x2="870" y2="720.0" stroke="#E5E7EB" stroke-width="1"/>
<text x="165" y="725.0" class="n" text-anchor="end">0.35</text>
<line x1="180" y1="580.0" x2="870" y2="580.0" stroke="#E5E7EB" stroke-width="1"/>
<text x="165" y="585.0" class="n" text-anchor="end">0.40</text>
<line x1="180" y1="440.0" x2="870" y2="440.0" stroke="#E5E7EB" stroke-width="1"/>
<text x="165" y="445.0" class="n" text-anchor="end">0.45</text>
<line x1="180" y1="300.0" x2="870" y2="300.0" stroke="#E5E7EB" stroke-width="1"/>
<text x="165" y="305.0" class="n" text-anchor="end">0.49</text>
<line x1="180" y1="160.0" x2="870" y2="160.0" stroke="#E5E7EB" stroke-width="1"/>
<text x="165" y="165.0" class="n" text-anchor="end">0.54</text>
<circle cx="180.0" cy="318.1174340432526" r="6" fill="#0072B2" opacity="1" stroke="none"/>
<circle cx="266.25" cy="323.55094454790105" r="6" fill="#0072B2" opacity="1" stroke="none"/>
<circle cx="352.5" cy="343.50251568208967" r="6" fill="#0072B2" opacity="1" stroke="none"/>
<circle cx="438.75" cy="346.8007566752908" r="6" fill="#0072B2" opacity="1" stroke="none"/>
<circle cx="525.0" cy="366.85787168070124" r="6" fill="#0072B2" opacity="1" stroke="none"/>
<circle cx="611.25" cy="283.2796147820661" r="6" fill="#0072B2" opacity="1" stroke="none"/>
<circle cx="697.5" cy="285.4866039065747" r="6" fill="#0072B2" opacity="1" stroke="none"/>
<circle cx="783.75" cy="239.9798667825525" r="6" fill="#0072B2" opacity="1" stroke="none"/>
<circle cx="870.0" cy="228.76816212459102" r="6" fill="#0072B2" opacity="1" stroke="none"/>
<line x1="180.0" y1="318.1174340432526" x2="266.25" y2="323.55094454790105" stroke="#0072B2" stroke-width="2"/>
<line x1="266.25" y1="323.55094454790105" x2="352.5" y2="343.50251568208967" stroke="#0072B2" stroke-width="2"/>
<line x1="352.5" y1="343.50251568208967" x2="438.75" y2="346.8007566752908" stroke="#0072B2" stroke-width="2"/>
<line x1="438.75" y1="346.8007566752908" x2="525.0" y2="366.85787168070124" stroke="#0072B2" stroke-width="2"/>
<line x1="525.0" y1="366.85787168070124" x2="611.25" y2="283.2796147820661" stroke="#0072B2" stroke-width="2"/>
<line x1="611.25" y1="283.2796147820661" x2="697.5" y2="285.4866039065747" stroke="#0072B2" stroke-width="2"/>
<line x1="697.5" y1="285.4866039065747" x2="783.75" y2="239.9798667825525" stroke="#0072B2" stroke-width="2"/>
<line x1="783.75" y1="239.9798667825525" x2="870.0" y2="228.76816212459102" stroke="#0072B2" stroke-width="2"/>
<circle cx="180.0" cy="429.72951320207005" r="6" fill="#D55E00" opacity="1" stroke="none"/>
<circle cx="266.25" cy="464.50530425824036" r="6" fill="#D55E00" opacity="1" stroke="none"/>
<circle cx="352.5" cy="541.1121863624528" r="6" fill="#D55E00" opacity="1" stroke="none"/>
<circle cx="438.75" cy="563.8091181558007" r="6" fill="#D55E00" opacity="1" stroke="none"/>
<circle cx="525.0" cy="577.8956411994891" r="6" fill="#D55E00" opacity="1" stroke="none"/>
<circle cx="611.25" cy="600.8794301206208" r="6" fill="#D55E00" opacity="1" stroke="none"/>
<circle cx="697.5" cy="619.134673534576" r="6" fill="#D55E00" opacity="1" stroke="none"/>
<circle cx="783.75" cy="628.4762990988477" r="6" fill="#D55E00" opacity="1" stroke="none"/>
<circle cx="870.0" cy="623.0395773412879" r="6" fill="#D55E00" opacity="1" stroke="none"/>
<line x1="180.0" y1="429.72951320207005" x2="266.25" y2="464.50530425824036" stroke="#D55E00" stroke-width="2"/>
<line x1="266.25" y1="464.50530425824036" x2="352.5" y2="541.1121863624528" stroke="#D55E00" stroke-width="2"/>
<line x1="352.5" y1="541.1121863624528" x2="438.75" y2="563.8091181558007" stroke="#D55E00" stroke-width="2"/>
<line x1="438.75" y1="563.8091181558007" x2="525.0" y2="577.8956411994891" stroke="#D55E00" stroke-width="2"/>
<line x1="525.0" y1="577.8956411994891" x2="611.25" y2="600.8794301206208" stroke="#D55E00" stroke-width="2"/>
<line x1="611.25" y1="600.8794301206208" x2="697.5" y2="619.134673534576" stroke="#D55E00" stroke-width="2"/>
<line x1="697.5" y1="619.134673534576" x2="783.75" y2="628.4762990988477" stroke="#D55E00" stroke-width="2"/>
<line x1="783.75" y1="628.4762990988477" x2="870.0" y2="623.0395773412879" stroke="#D55E00" stroke-width="2"/>
<rect x="580" y="115" width="18" height="18" fill="#0072B2" stroke="none" opacity="1"/>
<text x="606" y="130" class="n" text-anchor="start">Bray–Curtis</text>
<rect x="710" y="115" width="18" height="18" fill="#D55E00" stroke="none" opacity="1"/>
<text x="736" y="130" class="n" text-anchor="start">Aitchison</text>
<text x="865" y="185" class="n" text-anchor="end">maximum at tested boundary</text>
<text x="525.0" y="780" class="s" text-anchor="middle">Number of clusters (k)</text>
<text x="950" y="95" class="p" text-anchor="start">B</text>
<text x="995" y="95" class="s" text-anchor="start">Agreement between representations</text>
<line x1="1050" y1="720" x2="1740" y2="720" stroke="#1F2937" stroke-width="1"/>
<line x1="1050" y1="160" x2="1050" y2="720" stroke="#1F2937" stroke-width="1"/>
<text x="1050.0" y="752" class="n" text-anchor="middle">2</text>
<text x="1136.25" y="752" class="n" text-anchor="middle">3</text>
<text x="1222.5" y="752" class="n" text-anchor="middle">4</text>
<text x="1308.75" y="752" class="n" text-anchor="middle">5</text>
<text x="1395.0" y="752" class="n" text-anchor="middle">6</text>
<text x="1481.25" y="752" class="n" text-anchor="middle">7</text>
<text x="1567.5" y="752" class="n" text-anchor="middle">8</text>
<text x="1653.75" y="752" class="n" text-anchor="middle">9</text>
<text x="1740.0" y="752" class="n" text-anchor="middle">10</text>
<line x1="1050" y1="720.0" x2="1740" y2="720.0" stroke="#E5E7EB" stroke-width="1"/>
<text x="1035" y="725.0" class="n" text-anchor="end">-0.012</text>
<line x1="1050" y1="580.0" x2="1740" y2="580.0" stroke="#E5E7EB" stroke-width="1"/>
<text x="1035" y="585.0" class="n" text-anchor="end">-0.006</text>
<line x1="1050" y1="440.0" x2="1740" y2="440.0" stroke="#E5E7EB" stroke-width="1"/>
<text x="1035" y="445.0" class="n" text-anchor="end">0.000</text>
<line x1="1050" y1="300.0" x2="1740" y2="300.0" stroke="#E5E7EB" stroke-width="1"/>
<text x="1035" y="305.0" class="n" text-anchor="end">0.006</text>
<line x1="1050" y1="160.0" x2="1740" y2="160.0" stroke="#E5E7EB" stroke-width="1"/>
<text x="1035" y="165.0" class="n" text-anchor="end">0.012</text>
<line x1="1050" y1="440.0" x2="1740" y2="440.0" stroke="#6B7280" stroke-width="2" stroke-dasharray="5,5"/>
<circle cx="1050.0" cy="470.4285568170195" r="6" fill="#009E73" opacity="1" stroke="none"/>
<circle cx="1136.25" cy="528.9110931298346" r="6" fill="#009E73" opacity="1" stroke="none"/>
<circle cx="1222.5" cy="557.5434218397075" r="6" fill="#009E73" opacity="1" stroke="none"/>
<circle cx="1308.75" cy="583.9486730649555" r="6" fill="#009E73" opacity="1" stroke="none"/>
<circle cx="1395.0" cy="636.9173872394293" r="6" fill="#009E73" opacity="1" stroke="none"/>
<circle cx="1481.25" cy="610.646724437916" r="6" fill="#009E73" opacity="1" stroke="none"/>
<circle cx="1567.5" cy="627.4853491134099" r="6" fill="#009E73" opacity="1" stroke="none"/>
<circle cx="1653.75" cy="443.2952759328321" r="6" fill="#009E73" opacity="1" stroke="none"/>
<circle cx="1740.0" cy="434.7933458820061" r="6" fill="#009E73" opacity="1" stroke="none"/>
<line x1="1050.0" y1="470.4285568170195" x2="1136.25" y2="528.9110931298346" stroke="#009E73" stroke-width="2"/>
<line x1="1136.25" y1="528.9110931298346" x2="1222.5" y2="557.5434218397075" stroke="#009E73" stroke-width="2"/>
<line x1="1222.5" y1="557.5434218397075" x2="1308.75" y2="583.9486730649555" stroke="#009E73" stroke-width="2"/>
<line x1="1308.75" y1="583.9486730649555" x2="1395.0" y2="636.9173872394293" stroke="#009E73" stroke-width="2"/>
<line x1="1395.0" y1="636.9173872394293" x2="1481.25" y2="610.646724437916" stroke="#009E73" stroke-width="2"/>
<line x1="1481.25" y1="610.646724437916" x2="1567.5" y2="627.4853491134099" stroke="#009E73" stroke-width="2"/>
<line x1="1567.5" y1="627.4853491134099" x2="1653.75" y2="443.2952759328321" stroke="#009E73" stroke-width="2"/>
<line x1="1653.75" y1="443.2952759328321" x2="1740.0" y2="434.7933458820061" stroke="#009E73" stroke-width="2"/>
<text x="1395.0" y="780" class="s" text-anchor="middle">Number of clusters (k)</text>
</svg>
